<svg width="107" height="46" viewBox="0 0 107 46" fill="none" xmlns="http://www.w3.org/2000/svg">
<path d="M5.89669 16.8054V3.12621H0V22.2119C0 23.5718 0.196774 24.8337 0.548681 25.9896L5.89669 16.8054V16.8054Z" fill="white"/>
<path d="M46.7863 8.13439C44.0543 8.13439 42.2768 9.12275 42.2768 10.9716C42.2768 17.075 58.5788 13.7651 58.5356 24.5545C58.5356 30.1851 53.5925 33.4521 46.9161 33.4521C42.0604 33.4521 37.3346 31.5183 34.0825 28.6382L36.5108 23.7814C39.6322 26.532 43.7506 28.2084 47.0035 28.2084C50.2555 28.2084 52.2061 27.0047 52.2061 24.8985C52.2061 18.6227 35.9041 22.1908 35.9041 11.4872C35.9041 6.24347 40.456 2.89066 47.2631 2.89066C51.2957 2.89066 55.3276 4.18014 58.2326 6.07106L55.8918 11.0574C52.6405 9.12275 49.128 8.13439 46.7871 8.13439H46.7863Z" fill="white"/>
<path d="M79.3733 2.9117C70.8729 2.9117 63.9817 9.74361 63.9817 18.171C63.9817 20.1307 64.3581 22.0014 65.0366 23.7223L70.2932 14.6951C71.7016 11.0817 75.2305 8.51322 79.3733 8.51322C84.7532 8.51322 89.1141 12.8366 89.1141 18.1702C89.1141 23.5038 84.7532 27.8271 79.3733 27.8271C75.6583 27.8271 72.4307 25.7638 70.7879 22.7315L67.673 28.0797C70.4965 31.3524 74.6883 33.4295 79.3725 33.4295C87.873 33.4295 94.7642 26.5976 94.7642 18.1702C94.7642 9.7428 87.873 2.91089 79.3725 2.91089L79.3733 2.9117Z" fill="white"/>
<path d="M20.6816 3.12621V19.3318C20.6816 23.9741 17.3862 27.5851 12.6604 27.6709C9.95536 27.6709 7.81208 26.383 6.70982 24.2954L3.1687 30.3753C5.01887 32.178 7.56713 33.215 10.5351 33.215C14.9572 33.1721 18.513 31.3669 20.6808 28.2715V33.215H26.4901V3.1254H20.6808L20.6816 3.12621Z" fill="white"/>
<path d="M32.9763 43.8409C32.639 43.8409 32.3165 43.7866 32.0071 43.6774C31.6984 43.5681 31.46 43.428 31.291 43.2564L31.4788 42.8905C31.6388 43.0443 31.8536 43.1739 32.1238 43.2791C32.3941 43.3843 32.6774 43.4361 32.9763 43.4361C33.2612 43.4361 33.4931 43.4005 33.6727 43.3301C33.8515 43.2597 33.9838 43.1641 34.0679 43.0443C34.152 42.9245 34.1945 42.7918 34.1945 42.6461C34.1945 42.4704 34.1438 42.3288 34.0426 42.2219C33.9413 42.1151 33.8083 42.0301 33.6441 41.9678C33.48 41.9054 33.2988 41.8512 33.1004 41.8042C32.9011 41.7573 32.7027 41.7071 32.5043 41.6529C32.3059 41.5994 32.123 41.5274 31.9565 41.4375C31.7899 41.3477 31.656 41.2287 31.5547 41.0814C31.4535 40.9333 31.4029 40.7398 31.4029 40.5002C31.4029 40.2776 31.4625 40.0728 31.5809 39.8866C31.6993 39.7004 31.8822 39.5507 32.1287 39.4365C32.3745 39.3232 32.6905 39.2666 33.0742 39.2666C33.329 39.2666 33.5821 39.3022 33.8327 39.3726C34.0834 39.443 34.299 39.541 34.4802 39.6648L34.3186 40.0436C34.1242 39.9149 33.9177 39.821 33.6997 39.7611C33.4817 39.7012 33.271 39.6713 33.0677 39.6713C32.7958 39.6713 32.5705 39.7077 32.3941 39.7806C32.2169 39.8534 32.0863 39.9506 32.0022 40.0728C31.9181 40.195 31.8756 40.3326 31.8756 40.4872C31.8756 40.6629 31.9262 40.8045 32.0275 40.9114C32.1287 41.0182 32.2626 41.1024 32.4292 41.1623C32.5958 41.2222 32.7778 41.2757 32.9771 41.3226C33.1755 41.3696 33.3731 41.4214 33.5698 41.4764C33.7666 41.5323 33.9479 41.6035 34.1144 41.6917C34.281 41.78 34.4149 41.8965 34.5161 42.0422C34.6174 42.1879 34.6688 42.3782 34.6688 42.6137C34.6688 42.8323 34.6084 43.0346 34.4876 43.2208C34.3667 43.407 34.1822 43.5567 33.934 43.6709C33.6858 43.7842 33.3673 43.8409 32.9779 43.8409H32.9763Z" fill="white"/>
<path d="M41.0409 41.3161H43.4381V41.7209H41.0409V41.3161ZM41.0858 43.3908H43.8202L43.8137 43.802H40.613L40.6196 39.3054H43.723V39.7166H41.0923L41.0858 43.3908V43.3908Z" fill="white"/>
<path d="M51.8267 43.8409C51.4813 43.8409 51.1629 43.7842 50.8706 43.6709C50.5791 43.5575 50.3268 43.3981 50.1129 43.1925C49.899 42.9869 49.7324 42.7448 49.614 42.4664C49.4956 42.1879 49.436 41.8836 49.436 41.5541C49.436 41.2247 49.4956 40.9203 49.614 40.6418C49.7332 40.3634 49.9006 40.1214 50.1162 39.9157C50.3325 39.7101 50.5857 39.5507 50.8771 39.4374C51.1686 39.324 51.4871 39.2674 51.8333 39.2674C52.1786 39.2674 52.4954 39.3208 52.7828 39.4276C53.0702 39.5345 53.3152 39.6972 53.5185 39.9157L53.2205 40.2177C53.0302 40.0291 52.8212 39.8939 52.5918 39.8129C52.3632 39.7312 52.1166 39.6907 51.8528 39.6907C51.572 39.6907 51.314 39.7369 51.0788 39.8291C50.8437 39.9214 50.6387 40.0517 50.4632 40.2209C50.2885 40.3901 50.1521 40.5868 50.0549 40.8118C49.9578 41.0369 49.9096 41.2838 49.9096 41.5541C49.9096 41.8196 49.9578 42.0657 50.0549 42.2932C50.1521 42.5206 50.2885 42.7181 50.4632 42.8873C50.6379 43.0565 50.8437 43.1868 51.0788 43.2791C51.314 43.3714 51.5703 43.4175 51.8463 43.4175C52.1051 43.4175 52.3509 43.3795 52.582 43.3018C52.813 43.2249 53.0261 43.0937 53.2205 42.91L53.4924 43.2694C53.276 43.458 53.0237 43.6004 52.7338 43.6968C52.4448 43.7931 52.1419 43.8417 51.8267 43.8417V43.8409ZM53.0319 43.2111V41.5541H53.4924V43.2694L53.0319 43.2119V43.2111Z" fill="white"/>
<path d="M61.5755 43.8409C60.9966 43.8409 60.541 43.6757 60.2079 43.3463C59.8756 43.0168 59.709 42.5279 59.709 41.8819V39.3062H60.1883V41.8625C60.1883 42.3935 60.3091 42.7853 60.5508 43.0379C60.7925 43.2904 61.1338 43.4167 61.5747 43.4167C62.0197 43.4167 62.3626 43.2904 62.6051 43.0379C62.8468 42.7853 62.9676 42.3935 62.9676 41.8625V39.3062H63.4338V41.8819C63.4338 42.5287 63.2689 43.0168 62.9382 43.3463C62.6075 43.6765 62.1536 43.8409 61.5747 43.8409H61.5755Z" fill="white"/>
<path d="M69.783 43.8028V39.3062H71.4804C71.865 39.3062 72.1957 39.3669 72.4717 39.4892C72.7485 39.6114 72.9607 39.787 73.1102 40.0161C73.2588 40.2452 73.3339 40.5228 73.3339 40.8482C73.3339 41.1656 73.2596 41.4384 73.1102 41.6674C72.9607 41.8965 72.7485 42.0722 72.4717 42.1944C72.1949 42.3166 71.865 42.3773 71.4804 42.3773H70.0483L70.2622 42.1588V43.8036H69.783V43.8028ZM72.8799 43.8028L71.714 42.1709H72.2324L73.4049 43.8028H72.8799V43.8028ZM70.2622 42.1968L70.0483 41.9718H71.4674C71.9213 41.9718 72.2651 41.873 72.5011 41.6763C72.7362 41.4796 72.8538 41.2028 72.8538 40.8474C72.8538 40.488 72.7362 40.2096 72.5011 40.0121C72.2659 39.8154 71.9213 39.7166 71.4674 39.7166H70.0483L70.2622 39.4916V42.196V42.1968Z" fill="white"/>
<path d="M81.3461 43.8409C81.0089 43.8409 80.6954 43.7842 80.4031 43.6709C80.1116 43.5575 79.8593 43.3965 79.6454 43.1892C79.4315 42.9812 79.2649 42.7384 79.1465 42.4599C79.0281 42.1815 78.9685 41.8795 78.9685 41.5541C78.9685 41.2287 79.0281 40.9268 79.1465 40.6483C79.2657 40.3699 79.4331 40.1278 79.6486 39.9222C79.865 39.7166 80.1165 39.5563 80.4031 39.4406C80.6905 39.3248 81.0048 39.2674 81.3461 39.2674C81.6915 39.2674 82.0083 39.324 82.2957 39.4374C82.5831 39.5507 82.8346 39.7101 83.0501 39.9157C83.2665 40.1214 83.4339 40.3634 83.5523 40.6418C83.6715 40.9203 83.7303 41.2247 83.7303 41.5541C83.7303 41.8836 83.6707 42.1879 83.5523 42.4664C83.4339 42.7448 83.2665 42.9869 83.0501 43.1925C82.8338 43.3981 82.5823 43.5575 82.2957 43.6709C82.0083 43.7842 81.6923 43.8409 81.3461 43.8409V43.8409ZM81.3461 43.4232C81.6229 43.4191 81.876 43.3706 82.1071 43.2783C82.3382 43.186 82.539 43.0557 82.7097 42.8865C82.8803 42.7173 83.0142 42.5206 83.1114 42.2956C83.2085 42.0706 83.2567 41.8237 83.2567 41.5533C83.2526 41.2838 83.2036 41.0361 83.1114 40.811C83.0183 40.586 82.8852 40.3893 82.7129 40.2201C82.5398 40.0509 82.3382 39.9206 82.1071 39.8283C81.876 39.736 81.6221 39.6883 81.3461 39.6834C81.0783 39.6875 80.8277 39.736 80.5941 39.8283C80.3606 39.9206 80.1581 40.0509 79.985 40.2201C79.8128 40.3893 79.6789 40.586 79.5833 40.811C79.4886 41.0361 79.4413 41.2829 79.4413 41.5533C79.4413 41.8188 79.4886 42.0649 79.5833 42.2923C79.6789 42.5198 79.8128 42.7173 79.985 42.8865C80.1581 43.0557 80.3606 43.186 80.5941 43.2783C80.8277 43.3706 81.0783 43.4183 81.3461 43.4232V43.4232Z" fill="white"/>
<path d="M90.9594 43.8409C90.6222 43.8409 90.2997 43.7866 89.9902 43.6774C89.6816 43.5681 89.4432 43.428 89.2742 43.2564L89.462 42.8905C89.622 43.0443 89.8367 43.1739 90.107 43.2791C90.3772 43.3843 90.6606 43.4361 90.9594 43.4361C91.2444 43.4361 91.4762 43.4005 91.6559 43.3301C91.8347 43.2597 91.967 43.1641 92.0511 43.0443C92.1351 42.9245 92.1776 42.7918 92.1776 42.6461C92.1776 42.4704 92.127 42.3288 92.0257 42.2219C91.9245 42.1151 91.7914 42.0301 91.6273 41.9678C91.4632 41.9054 91.2819 41.8512 91.0835 41.8042C90.8843 41.7573 90.6859 41.7071 90.4875 41.6529C90.2891 41.5994 90.1062 41.5274 89.9396 41.4375C89.773 41.3477 89.6391 41.2287 89.5379 41.0814C89.4366 40.9333 89.386 40.7398 89.386 40.5002C89.386 40.2776 89.4456 40.0728 89.564 39.8866C89.6824 39.7004 89.8653 39.5507 90.1119 39.4365C90.3577 39.3232 90.6736 39.2666 91.0574 39.2666C91.3121 39.2666 91.5652 39.3022 91.8159 39.3726C92.0666 39.443 92.2821 39.541 92.4634 39.6648L92.3017 40.0436C92.1074 39.9149 91.9008 39.821 91.6828 39.7611C91.4648 39.7012 91.2542 39.6713 91.0509 39.6713C90.779 39.6713 90.5536 39.7077 90.3772 39.7806C90.2001 39.8534 90.0694 39.9506 89.9853 40.0728C89.9012 40.195 89.8588 40.3326 89.8588 40.4872C89.8588 40.6629 89.9094 40.8045 90.0106 40.9114C90.1119 41.0182 90.2458 41.1024 90.4124 41.1623C90.5789 41.2222 90.761 41.2757 90.9602 41.3226C91.1586 41.3696 91.3562 41.4214 91.553 41.4764C91.7498 41.5323 91.931 41.6035 92.0976 41.6917C92.2641 41.78 92.3981 41.8965 92.4993 42.0422C92.6005 42.1879 92.652 42.3782 92.652 42.6137C92.652 42.8323 92.5916 43.0346 92.4707 43.2208C92.3499 43.407 92.1654 43.5567 91.9171 43.6709C91.6689 43.7842 91.3505 43.8409 90.961 43.8409H90.9594Z" fill="white"/>
</svg>
