<svg width="211" height="211" viewBox="0 0 211 211" fill="none" xmlns="http://www.w3.org/2000/svg">
<path fill-rule="evenodd" clip-rule="evenodd" d="M14.463 0.388743C7.07947 1.61864 1.0784 8.37486 0.266794 16.3726C0.0314984 18.6856 -0.0667116 60.5054 0.0478674 109.305L0.256565 198.032L2.28489 201.697C4.33162 205.395 6.45269 207.388 10.8278 209.725C13.1249 210.952 16.6973 211 105.628 211H198.042L201.704 208.97C205.399 206.922 207.391 204.799 209.726 200.421C210.952 198.122 211 194.547 211 105.551C211 16.5555 210.952 12.9805 209.726 10.6818C207.391 6.30342 205.399 4.1808 201.704 2.13257L198.042 0.102769L107.674 0.0092647C57.9723 -0.0426065 16.0275 0.128705 14.463 0.388743ZM194.836 16.2784C196.025 17.468 196.025 193.635 194.836 194.824C193.647 196.014 17.6091 196.014 16.4204 194.824C15.2316 193.635 15.2316 17.468 16.4204 16.2784C17.6091 15.0888 193.647 15.0888 194.836 16.2784ZM28.7792 25.433C24.6823 27.4553 24.4682 28.7534 24.4682 51.5869C24.4682 74.2806 24.7185 75.9214 28.473 77.8645C30.2224 78.7695 33.8957 78.9333 52.465 78.9333H74.3919L76.7107 76.6127L79.0296 74.2922V52.3493C79.0296 27.89 78.9014 27.1119 74.5733 25.3019C71.0043 23.8099 31.8415 23.9219 28.7792 25.433ZM93.011 24.9832C92.2607 25.2937 90.8797 26.3735 89.9419 27.3829C88.3125 29.1356 88.2266 29.6591 88.0009 39.1385C87.7008 51.731 88.1339 54.706 90.63 57.204C93.3977 59.9737 97.8799 59.9505 101.014 57.1501L103.241 55.1606L103.454 42.8658C103.696 28.9097 103.23 27.0184 99.1259 25.3019C96.5452 24.2229 95.0372 24.1444 93.011 24.9832ZM116.759 25.433C115.567 26.022 114.109 27.5201 113.52 28.763C112.128 31.6978 112.064 41.8843 113.418 45.1256C115.841 50.9311 124.742 50.9311 127.166 45.1256C128.522 41.8782 128.455 31.6978 127.059 28.7534C125.981 26.4799 122.609 24.3177 120.189 24.3478C119.495 24.3559 117.952 24.8446 116.759 25.433ZM136.534 25.3313C132.368 27.144 132.227 28.0306 132.227 52.3493V74.2922L134.546 76.6127L136.865 78.9333H158.792C177.361 78.9333 181.034 78.7695 182.784 77.8645C186.538 75.9214 186.788 74.2806 186.788 51.5869C186.788 28.6305 186.582 27.4088 182.37 25.4084C179.228 23.9164 139.936 23.8502 136.534 25.3313ZM64.0252 51.9739V63.918H52.0899H40.1546V51.9739V40.0299H52.0899H64.0252V51.9739ZM171.102 51.9739V63.918H159.167H147.231V51.9739V40.0299H159.167H171.102V51.9739ZM118.509 59.0059C117.528 59.1199 115.84 60.1375 114.758 61.2677C112.899 63.2075 112.777 63.7036 112.553 70.1459C112.294 77.6618 112.948 80.2014 115.702 82.3691C117.978 84.1607 122.605 84.1607 124.882 82.3691C127.635 80.2014 128.289 77.6618 128.03 70.1459C127.808 63.7303 127.678 63.2013 125.856 61.2998C123.912 59.2707 121.83 58.6203 118.509 59.0059ZM91.0802 70.0913C88.7784 71.9041 87.904 75.2238 87.8999 82.1752L87.8958 87.806L82.2692 87.8101C72.2919 87.8162 68.7993 89.872 68.7993 95.7361C68.7993 98.0505 69.2372 99.1958 70.7881 100.933L72.7762 103.163L85.062 103.376C103.707 103.699 103.777 103.629 103.454 84.9701L103.241 72.6753L101.014 70.6858C98.2236 68.1925 93.8273 67.9298 91.0802 70.0913ZM30.5286 88.354C29.5479 88.468 27.8599 89.4863 26.7775 90.6173L24.8092 92.673V105.583V118.493L27.038 120.724L29.2669 122.956L42.7244 123.175C57.5467 123.418 60.523 122.919 62.8317 119.805C64.3812 117.714 64.6595 113.814 63.4237 111.504C61.6654 108.216 59.4646 107.599 49.4873 107.599H40.2753L40.0441 100.134C39.8238 93.0081 39.7256 92.5781 37.876 90.6473C35.9315 88.6189 33.8493 87.9684 30.5286 88.354ZM127.666 88.5335C122.521 90.0822 120.914 96.7271 124.667 100.933L126.656 103.163L141.339 103.371C153.64 103.545 156.357 103.404 158.094 102.506C163.223 99.8517 163.491 92.3836 158.576 89.1151C156.824 87.95 131.206 87.4681 127.666 88.5335ZM177.162 88.354C176.182 88.468 174.494 89.4857 173.411 90.6152C171.454 92.658 171.442 92.7242 171.223 102.473L171.003 112.278L161.175 112.497L151.346 112.718L149.175 114.892C147.361 116.709 147.004 117.585 147.004 120.225C147.004 122.865 147.361 123.741 149.175 125.559L151.347 127.733L165.644 127.942C187.358 128.259 186.973 128.643 186.656 106.946L186.447 92.6703L184.51 90.6473C182.565 88.6189 180.483 87.9684 177.162 88.354ZM77.137 108.946C73.4582 111.225 72.5156 115.752 74.9048 119.672C76.6862 122.596 79.5295 123.289 89.7714 123.293L98.1261 123.297V134.839V146.382L95.4178 146.84C91.917 147.432 89.4665 149.4 88.6795 152.25C87.831 155.326 88.393 157.734 90.4357 159.778C92.5867 161.931 95.1095 162.399 102.921 162.098C108.969 161.866 109.21 161.793 111.141 159.63L113.13 157.401V134.9V112.398L111.142 110.169L109.153 107.94L94.2618 107.752C80.3111 107.575 79.2294 107.65 77.137 108.946ZM127.035 113.045C126.244 113.366 124.939 114.463 124.137 115.483C122.835 117.139 122.68 118.187 122.694 125.266C122.71 133.711 123.187 135.143 126.555 136.867C129.543 138.396 132.867 137.808 135.364 135.309L137.683 132.988V125.72C137.683 117.28 136.805 114.843 133.227 113.346C130.631 112.261 129.152 112.19 127.035 113.045ZM28.1381 133.473C26.9678 134.187 25.6638 135.767 25.2396 136.985C24.7321 138.44 24.4682 146.198 24.4682 159.639C24.4682 182.461 24.6776 183.695 28.8863 185.694C32.0754 187.208 70.9893 187.299 74.5733 185.801C78.9014 183.991 79.0296 183.213 79.0296 158.753V136.811L76.7107 134.49L74.3919 132.169L52.3286 132.172C31.8469 132.174 30.1126 132.268 28.1381 133.473ZM150.517 138.12C145.159 141.445 146.095 149.658 152.07 151.754C153.349 152.202 158.122 152.585 162.697 152.607L171.001 152.645L171.222 162.599L171.443 172.553L173.67 174.543C176.245 176.844 180.658 177.271 183.23 175.468C186.43 173.225 186.788 171.375 186.788 157.094C186.788 136.423 187.307 136.939 166.532 136.966C154.508 136.981 152.068 137.157 150.517 138.12ZM132.44 147.256C131.245 147.601 129.634 148.69 128.86 149.674C127.535 151.36 127.453 152.344 127.453 166.576C127.453 187.519 126.733 186.771 146.878 186.771C161.778 186.771 164.126 186.277 165.942 182.763C168.094 178.597 166.551 173.714 162.554 172.043C160.951 171.373 157.484 171.073 151.345 171.073H142.457V161.124V151.175L140.464 149.18C139.367 148.082 138.011 147.185 137.451 147.185C136.889 147.185 136.022 147.059 135.522 146.906C135.023 146.752 133.636 146.91 132.44 147.256ZM64.0252 159.129V171.073H52.0899H40.1546V159.129V147.185H52.0899H64.0252V159.129ZM93.011 171.699C90.1021 172.957 88.3507 175.686 88.3507 178.96C88.3507 181.557 88.7149 182.446 90.5216 184.255L92.6925 186.429L101.958 186.654C108.157 186.805 111.884 186.605 113.223 186.05C118.214 183.981 119.569 177.738 115.917 173.643L113.928 171.414L104.152 171.261C98.7747 171.177 93.7612 171.375 93.011 171.699Z" fill="white" fill-opacity="0.34"/>
</svg>
