<svg width="1920" height="1080" viewBox="0 0 1920 1080" fill="none" xmlns="http://www.w3.org/2000/svg">
<rect width="1920" height="1080" fill="#696CFF"/>
<path fill-rule="evenodd" clip-rule="evenodd" d="M889.937 473.396C886.84 474.364 884.05 477.317 883.298 480.425C883.036 481.506 882.955 499.437 883.023 540.894L883.12 599.826L883.899 601.397C884.891 603.4 886.739 605.239 888.753 606.226L890.333 607H960.06H1029.79L1031.37 606.226C1033.38 605.239 1035.23 603.4 1036.22 601.397L1037 599.826V540.04V480.254L1036.22 478.682C1035.23 476.679 1033.38 474.841 1031.37 473.854L1029.79 473.079L960.575 473.015C904.488 472.963 891.093 473.035 889.937 473.396ZM1027.21 540.04V597.263H960.06H892.909V540.04V482.816H960.06H1027.21V540.04ZM990.151 492.581C982.955 494.506 978.169 501.66 979.379 508.686C980.457 514.946 985.152 519.646 991.498 520.82C995.844 521.624 1000.92 519.882 1004.16 516.473C1009.56 510.798 1009.58 502.348 1004.22 496.708C1000.51 492.805 995.168 491.239 990.151 492.581ZM919.086 539.99L902.183 568.809V578.424V588.039H960.06H1017.94V559.13C1017.94 532.082 1017.9 530.25 1017.36 530.688C1017.04 530.946 1009.43 537.422 1000.44 545.078L984.104 559L979.295 558.995L974.486 558.99L955.271 535.081C944.702 521.931 936.04 511.172 936.022 511.172C936.003 511.172 928.382 524.14 919.086 539.99Z" fill="white"/>
</svg>
