<svg width="526" height="526" viewBox="0 0 526 526" fill="none" xmlns="http://www.w3.org/2000/svg">
<path fill-rule="evenodd" clip-rule="evenodd" d="M9.86239 2.11435C-2.41061 8.18935 -3.45061 25.2074 7.98939 32.7844L12.0414 35.4684L42.6174 35.9684L73.1944 36.4684L79.8174 39.6064C90.3024 44.5744 97.7104 52.2814 102.273 62.9684C104.126 67.3094 104.212 72.1174 104.711 198.968L105.229 330.468L107.513 338.468C114.573 363.2 130.777 382.877 153.194 393.941C171.864 403.155 160.606 402.468 292.871 402.468H409.547L412.371 400.376C421.47 393.634 423.013 382.254 415.964 373.877C410.733 367.66 416.858 367.969 298.476 367.96C230.674 367.956 187.764 367.576 183.694 366.944C174.456 365.511 162.443 359.365 156.003 352.778C151.357 348.026 143.694 336.835 143.694 334.801C143.694 334.37 195.107 333.893 257.944 333.743L372.194 333.468L380.976 330.713C405.527 323.011 425.438 307.546 437.506 286.803C439.854 282.769 460.527 241.443 483.448 194.968C523.039 114.692 525.124 110.189 525.158 104.895C525.204 97.7474 521.763 92.1484 515.444 89.0894C511.28 87.0734 509.603 86.9694 481.628 86.9904C455.152 87.0104 451.792 87.1974 448.194 88.8584C434.407 95.2214 433.837 113.453 447.194 120.81C449.432 122.043 453.807 122.59 464.413 122.965L478.632 123.468L443.063 195.468C423.5 235.068 405.502 270.266 403.067 273.685C395.607 284.162 383.634 292.415 369.649 296.72C364.707 298.242 353.691 298.429 252.472 298.713L140.75 299.026L140.449 181.747C140.164 71.0064 140.044 64.1064 138.291 57.9684C129.696 27.8764 106.798 6.84635 76.6944 1.39635C71.6004 0.473352 60.3714 0.0273522 41.6944 0.00435221C15.5544 -0.0286478 13.9804 0.0763528 9.86239 2.11435ZM271.214 90.2554C268.983 91.5194 266.245 94.2573 264.981 96.4883C262.788 100.36 262.726 101.247 262.71 129.218L262.694 157.968L233.944 157.984C205.973 158 205.086 158.062 201.214 160.255C189.9 166.663 189.9 184.273 201.214 190.681C205.086 192.874 205.973 192.936 233.944 192.952L262.694 192.968L262.71 221.718C262.726 249.689 262.788 250.576 264.981 254.448C267.971 259.728 273.72 262.935 280.194 262.935C286.668 262.935 292.417 259.728 295.407 254.448C297.6 250.576 297.662 249.689 297.678 221.718L297.694 192.968L326.444 192.952C354.415 192.936 355.302 192.874 359.174 190.681C370.488 184.273 370.488 166.663 359.174 160.255C355.302 158.062 354.415 158 326.444 157.984L297.694 157.968L297.678 129.218C297.662 101.247 297.6 100.36 295.407 96.4883C292.417 91.2083 286.668 88.0014 280.194 88.0014C276.85 88.0014 273.876 88.7474 271.214 90.2554ZM146.105 421.452C125.55 425.924 108.812 443.98 105.532 465.218C100.213 499.664 130.986 530.479 165.368 525.134C182.373 522.49 197.666 511.214 205.027 495.892C224.083 456.225 189.146 412.087 146.105 421.452ZM338.295 421.498C319.392 426.277 304.747 440.319 299.289 458.9C296.148 469.594 297.698 486.078 302.802 496.248C313.521 517.611 338.641 529.834 361.006 524.571C385.127 518.894 401.096 500.353 402.435 476.468C403.239 462.134 400.038 451.406 391.637 440.277C380.236 425.175 356.628 416.863 338.295 421.498ZM166.174 458.255C177.368 464.595 177.368 481.341 166.174 487.681C154.836 494.102 140.727 485.944 140.727 472.968C140.727 463.658 148.384 456.001 157.694 456.001C160.519 456.001 163.675 456.84 166.174 458.255ZM357.023 457.332C361.272 459.108 365.37 464.05 366.706 469.013C369.466 479.261 361.029 489.968 350.194 489.968C339.359 489.968 330.922 479.261 333.682 469.013C336.469 458.661 347.269 453.257 357.023 457.332Z" fill="white"/>
</svg>
