<svg width="58" height="50" viewBox="0 0 58 50" fill="none" xmlns="http://www.w3.org/2000/svg">
<path fill-rule="evenodd" clip-rule="evenodd" d="M2.61261 0.147924C1.44628 0.508807 0.395588 1.6107 0.112283 2.77035C0.0137082 3.17394 -0.0170795 9.86461 0.00866374 25.3335L0.0452732 47.323L0.338539 47.9094C0.71214 48.6568 1.40837 49.3429 2.16683 49.711L2.7619 50H29.0226H55.2834L55.8784 49.711C56.6369 49.3429 57.3331 48.6568 57.7067 47.9094L58 47.323V25.0148V2.70661L57.7067 2.12022C57.3331 1.37284 56.6369 0.686762 55.8784 0.318613L55.2834 0.0296261L29.2167 0.00566027C8.09296 -0.0138435 3.04805 0.0131819 2.61261 0.147924ZM54.3131 25.0148V46.367H29.0226H3.73213V25.0148V3.66268H29.0226H54.3131V25.0148ZM40.3555 7.30631C37.6452 8.0245 35.8431 10.694 36.2987 13.3155C36.7047 15.6514 38.4729 17.4053 40.863 17.8433C42.4998 18.1434 44.4114 17.4933 45.6321 16.2214C47.6648 14.1036 47.6742 10.9508 45.6542 8.84608C44.2567 7.39006 42.2452 6.80546 40.3555 7.30631ZM13.5908 24.9963L7.22493 35.7495V39.3373V42.9251H29.0226H50.8203V32.1379C50.8203 22.0455 50.8064 21.3619 50.6027 21.5256C50.4831 21.6217 47.616 24.038 44.2316 26.8949L38.0781 32.0894L36.267 32.0877L34.4559 32.0859L27.2189 23.1645C23.2385 18.2577 19.9761 14.2431 19.9692 14.2431C19.9622 14.2431 17.0919 19.0821 13.5908 24.9963Z" fill="#696CFF"/>
</svg>
