<svg width="50" height="50" viewBox="0 0 50 50" fill="none" xmlns="http://www.w3.org/2000/svg">
<circle cx="25" cy="25" r="25" fill="#696CFF"/>
<path fill-rule="evenodd" clip-rule="evenodd" d="M15.036 15.0592C14.5735 15.2035 14.1569 15.6443 14.0445 16.1081C14.0054 16.2696 13.9932 18.9458 14.0034 25.1334L14.018 33.9292L14.1342 34.1638C14.2824 34.4627 14.5585 34.7371 14.8593 34.8844L15.0952 35H25.509H35.9227L36.1587 34.8844C36.4595 34.7371 36.7356 34.4627 36.8837 34.1638L37 33.9292V25.0059V16.0826L36.8837 15.8481C36.7356 15.5491 36.4595 15.2747 36.1587 15.1274L35.9227 15.0119L25.5859 15.0023C17.2093 14.9945 15.2087 15.0053 15.036 15.0592ZM35.538 25.0059V33.5468H25.509H15.48V25.0059V16.4651H25.509H35.538V25.0059ZM30.003 17.9225C28.9283 18.2098 28.2136 19.2776 28.3943 20.3262C28.5553 21.2605 29.2565 21.9621 30.2043 22.1373C30.8534 22.2574 31.6114 21.9973 32.0955 21.4886C32.9016 20.6414 32.9053 19.3803 32.1043 18.5384C31.5501 17.956 30.7524 17.7222 30.003 17.9225ZM19.3894 24.9985L16.8651 29.2998V30.7349V32.17H25.509H34.1529V27.8552C34.1529 23.8182 34.1474 23.5448 34.0666 23.6102C34.0192 23.6487 32.8822 24.6152 31.5401 25.758L29.0999 27.8358L28.3817 27.8351L27.6635 27.8344L24.7937 24.2658C23.2153 22.3031 21.9216 20.6973 21.9188 20.6973C21.916 20.6973 20.7778 22.6328 19.3894 24.9985Z" fill="white"/>
</svg>
